# xmcd
#
# Track frame offsets:
#	150
#	22817
#	46944
#	74130
#	101358
#	133037
#	151558
#	178511
#	197601
#	218144
#
# Disc length: 3115 seconds
#
# Revision: 14
# Processed by: cddbd v1.5.2PL0 Copyright (c) Steve Scherf et al.
# Submitted via: Jack! The Knife 20 Magnifico
#
DISCID=7e0c290a
DTITLE=Metal Church - The Human Factor
DYEAR=1991
DGENRE=Metal
TTITLE0=The Human Factor
TTITLE1=Date With Poverty
TTITLE2=The Final Word
TTITLE3=In Mourning
TTITLE4=In Harm's Way
TTITLE5=In Due Time
TTITLE6=Agent Green
TTITLE7=Flee From Reality
TTITLE8=Betrayed
TTITLE9=The Fight Song
EXTD=Mark Dodson
EXTT0=Howe, Vanderhoof
EXTT1=Howe, Vanderhoof
EXTT2=Howe, Vanderhoof
EXTT3=Howe, Marshall, Vanderhoof, Wells
EXTT4=Marshall, Vanderhoof
EXTT5=Howe, Marshall, Vanderhoof, Wells, Arrington
EXTT6=Howe, Vanderhoof
EXTT7=Howe, Marshall, Wells
EXTT8=Howe, Vanderhoof
EXTT9=Howe, Marshall, Wells, Erickson, Arrington
PLAYORDER=
